<mxfile host="app.diagrams.net" modified="2022-04-27T01:23:25.168Z" agent="5.0 (Windows NT 10.0; Win64; x64) AppleWebKit/537.36 (KHTML, like Gecko) Chrome/99.0.4844.51 Safari/537.36 Edg/99.0.1150.39" etag="gsXn0k7BN9seUjutEulY" version="17.4.6" type="github">
  <diagram name="Page-1" id="12e1b939-464a-85fe-373e-61e167be1490">
    <mxGraphModel dx="1422" dy="762" grid="1" gridSize="10" guides="1" tooltips="1" connect="1" arrows="1" fold="1" page="1" pageScale="1.5" pageWidth="1169" pageHeight="826" background="none" math="0" shadow="0">
      <root>
        <mxCell id="0" />
        <mxCell id="1" parent="0" />
        <mxCell id="f1pKXdtNbzWSWGtjOWuU-1" value="" style="shape=image;verticalLabelPosition=bottom;labelBackgroundColor=default;verticalAlign=top;aspect=fixed;imageAspect=0;image=data:image/png,iVBORw0KGgoAAAANSUhEUgAAA5oAAAIRCAYAAAAr9cIkAAAgAElEQVR4nOzdf3DU953n+ZfUAiSBbhrLNhYm3jSaJHc24fB8nckeOhcT4IB4taAwHo+nAgQwOJOtUWu0Mybn5YQsVNqjTK46al3qJgYsW8g77JXNCMISQllkKEee8ZjvDJHxzGU8qL0sRpYXgYxkSYB+3B+tbrqlluhuPv1Lej6qqJK6P6/v5/NWtzFvfb7fb2eN3vzVqKJwpfOqFhbdH83QML29/SooyE/7HPWZnY/6zOaoz+x81Gc2R31m56M+sznqMzsf9ZnNUZ/Z+ajPbO5e68u6cfV0VI1mb1+/CubFvsBMQX2ZjfoyG/VlNurLbNSX2agvs1FfZqO+qeVE29329mVG5x13jvrMzkd9ZnPUZ3Y+6jOboz6z81Gf2Rz1mZ2P+szmqM/sfNRnNneP9WXHnAQAAAAAYAo0mgAAAAAAo2g0AQAAAABG0WgCAAAAAIyi0QQAAAAAGEWjCQAAAAAwikYTAAAAAGAUjSYAAAAAwCgaTQAAAACAUTSaAAAAAACjaDQBAAAAAEbRaAIAAAAAjMq6cfX0aDQDe/v6VTAvP9HrSRnqy2zUl9moL7NRX2ajvsxGfZmN+jIb9U0tp6AgunBvX7+iHRuW682QHPWZnY/6zOaoz+x81Gc2R31m56M+sznqMzsf9ZnNUZ/Z+ajPbO4e6+PUWQAAAACAUTSaAAAAAACjaDQBAAAAAEbRaAIAAAAAjKLRBAAAAAAYRaMJAAAAADCKRhMAAAAAYBSNJgAAAADAKBpNAAAAAIBRNJoAAAAAAKNoNAEAAAAARtFoAgAAAACMyrpx9fRoNAN7+/pVMC8/0etJGerLbNSX2agvs1FfZqO+zEZ9mY36Mhv1TS2noCC6cG9fv6IdG5brzZAc9Zmdj/rM5qjP7HzUZzZHfWbnoz6zOeozOx/1mc1Rn9n5qM9s7h7r49RZAAAAAIBRNJoAAAAAAKNoNAEAAAAARtFoAgAAAACMotEEAAAAABhFowkAAAAAMIpGEwAAAABgFI0mAAAAAMAoGk0AAAAAgFE0mgAAAAAAo2g0AQAAAABG0WgCAAAAAIzK+uTjltFETlAwL1+9ff1pn4sX9aVHLl7Ulx65eFFfeuTiRX3pkYsX9aVHLl7Ulx65eFFfeuTiNVPqyxq9+auoGs0rnVe1sOj+mCfq7e1XQUF+2ueoz+x81Gc2R31m56M+sznqMzsf9ZnNUZ/Z+ajPbI76zM5HfWZz91ofp84CAAAAAIyi0QQAAAAAGEWjCQAAAAAwikYTAAAAAGAUjSYAAAAAwCgaTQAAAACAUTmpXgBS69atITW90apz9kfq+uy6bt8eDnt+ZHRE2Vmx/z4i2bnh4WE5HI6kzXe33KxZDhU9dJ++vuTL+t6m1crPnxPzHAAAAECmotGcwfr7b+oPN+3Tlc5uSZLT6VReXl7YmOys+I6d7JwjzndyotbZ2zeoS+//Ru+9/xudPHVObx3Zrdmz+c8NAAAAMwP/8p3BXm9+W1c6u7V48WLt27dPxcXFqV7StOLz+bRr1y51dHSo6Y1W7di2NtVLAgAAAJKCazRnsA8ufCxJevnll2kyE8Dlcmnfvn2SpHP2RyleDQAAAJA8NJozWOen1zR//ny5XK5UL2XaKi4ultPpVNdn11O9FAAAACBpaDRnsNu3h5Wbm5vqZUx7eXl5E26yBAAAAExnOb29/VEPjmUsufTP+e+cGtehEKOR0ZHgzz/Vrzs5cuTIkSNHjhw5conO5RQU5Ec3uK9f0Y4dP0lG5GZgffF8rAfik52VrYKCfN6fk+Woz+x81Gc2R31m56M+sznqMzsf9ZnNUZ/Z+TKsPjoNAAAAAIBRNJoAAAAAAKNoNAEAAAAARtFoAgAAAACMotEEAAAAABhFowkAAAAAMIpGEwAAAABgFI0mAAAAAMAoGk0AAAAAgFE0mgAAAAAAo2g0AQAAAABG0WgCAAAAAIzK6e3tj3pwLGPJpX9uZHRE2VlxHQoxGhkdCf78U/26kyNHjhw5cuTIkSOX6FxOQUF+dIP7+hXt2PGTZERuBtaXncWGdrJkZ2WroCCf9+dkOeozOx/1mc1Rn9n5qM9sjvrMzkd9ZnPUZ3a+DKuPTgMAAAAAYBSNJgAAAADAqJxULwBAEmTNjm149nDMmXvJORy5SZ2P+mLMjd6K+VgAAGBmo9EEZopZ34h66Lz58U0Rb27BouTOR30x5G6/H9/BAADAjMapswAAAAAAo2g0kTEaGhp07NixVC9jmmiXx3KrpSvkkXpL7uPdkyfqLXnOT/z6nnW1yG1Zctd75AnM39Uid337xK8jr0wey5I19ie4rq4Wud0t6pbUfdwdfH7Cn/r2KeZol8fyaKrZozfxZz6psZ/JpGsOXdN5z53Xbarc2M9C6laLe6pjT/0+AAAAiAanziIlGhoa9Nprr0mSioqK1NDQIJfLleJVTXdDanF/U7VtIQ89Zak2bMwaWTX+r0q2/b7aGt8KP0STpeZIX0vadMhW5bLoV9Neb2lbkyRtUqNta6n8DaHnvFeVRSHjjpzRymfL5G/UtoXNObZSVZ20ZS8Y9/CCMnl3+5vNaq9X9voIizjvkXXWP7ba5Zb7eLW8jzTJei58lmbrzvex1nmn3rG1T/iZh9qkRrtSSyVpS6PsiqURxnSrxd1059tlldpx1pLnvK3KZWXy2mUTI10tctcFvilUmddWhFH+ox93qyaKegAAAKZCo4mk6unpUUVFhZ544gnZth187PDhw9q5c6dyc3NTvMLpLEdl3tOSu0mLvWPNjLrV4q6RdntVNr5Rk6Q/+Q/BL9vrLbWu8DdZoV/rfItaisoi56ewtMKWXdEuj9UafKxw/Q7J3aLu3WMPnPfooKta3sCxS6p02lumwrse3d+MLfZWyuv17+D5tt9Z+zZNbOIK11drZf076l5fKduuDFQtj9WqVYHmL07dx93a1hTSRBq2tKJRre4WdUf1swlt8iMrqTa2NAAAMEPRaCKpDh8+rCeeeELl5eXBx5xOZ9j3SLRmbbNCd+xKVKWQ5lEeWWdXya54OKwJXVphB5sk/9eBJmyVfPXtUsTdt8l0q8W9Jri72mw1B3fwKr1Lpa4W/xPLKuUN3T1sq9Uaa/L9wGA9J+90St3Ha/zztIXuwG6TZ4WtyrBcocoqytReb2nNuCYsdEezpPq0vOujaefGdLWo5u2VOn1SqrEstU02btIdzGiM/dyiHV1hy66I/Bw7mgAAwAQaTSRNT0+PPvroI1VWVkZ83ufzyePxaO/evXI6nRocHFRtba02btwoy7IkSQMDA9q9e7dOnTolSXrllVeCz/l8PpWXl6uzs1OStHXrVpWXl+vYsWM6evSo6uvr5XQ61dDQoE8//VRVVVVJ3UEt/c5LGhkdUXZW7JdGDw8Py+FwxJwLzHfffYVqOnxk7NHQnbWxHc0pTXbKql+wCVsRyymlY6dvdrXI/ZRPO+zKscY1/HRca6zh8zd3im1HM+S78ae7ttdburOP+rla3JZq28bmqbBlr/DIek4TdiC7j7vV9EgMTabkP4XXK+m8R22BZvJ8oJkfO3rgFN5QTduC9U+0SY3+SoKvTaAB7j7u1pqaCO1sSZX/FNqnaidvdoP8p1CffMfWnz3/f6nn+tTXbN7r+3MyCxY49f94/0SzZ/O/KgAAMg3/90ZGaW5uVkNDg+rq6uTz+VRdXa2aGn+jVF1dHbzWM9CkHjt2TBs2bNClS5d09uxZLV26VH19fUlvMtNL5B3N4I5l2E1+2lT7VJtUUqXG1T51fLNSZZ0eeVSpymVjp6fudungkcVxXbfY/d4ZtalNbfWr/DtsERpJEztszc9ZExrlTSsCX/2Wyry2ngzO0y7Pcz5VndyhVsutjkMrdebsYnkrlqpwvVeRf00yhfOekGs+m0Oax+ZxjaT/+02HbP81qlFdo7lUlbatLeN+RhOuIw1co7kg0jWcd04zjjRbdlZUVRrX98WAOn99TVe7P9fCohibewAAkHI0msgoO3fuDN40yOVy6Rvf+IauXbumy5cv6xvf+EbwudzcXG3cuFFHjx7V2rVrtXnzZlVUVOjAgQNqaGhISZN54q9eUm9vvwoK8mPOXum8qoVF98ecC86XNTvk0ZAdzbEG5MkFCmuISqq36M5NY9rlcXdI8qk2eCObZunQabkktQZv1hOrdjW9LZVok1a6Dspzfsekp8aGXzM41Q5riapOTrzedNOhRunVDm3ZLdUc8TeNksY11QFLVWlXq8W9Rjpkq6yoRWfiqC5oWaVse0vYacjdx91a49sRtqPpvrTlzim50dyZNhaBXVVJgZ+fL+wU4Ga1nq/U0mXS+Ot2m179M2n01pSHv+f3ZwTP/zuv7H/4l5iPCQAA0kNOb29/1INjGUsu/XP+09biOlRcnE6nvvKVr6i9vd3IHWYHBwf16aefGlhZ4o2MjgR//ql43bOyhzVvvuRvHgN7ct1qOSJVB3YQl4XeBEfhO3ElVVol150m7rxHHhVqcXGzai9W6XSMNwKSpO7jB6XtO+Rqa9Xi9Tvkcx+Ub6odza4O+YoXjz0X6cY6kU8DLlzvVeV5j6ziVapUR/Dx9nq3OiK8D8NulBNyXWdw9zGuayk/ka/NpVUL7qypsd6S+3iM13vei5DTdSttW93H3XLXu6SLkktS83MerTrp0sGnauU6ZKtybK19fQMaHbl518Obfl8PD49Ikr7oG4w4JtV/f5IjR44cOXLkps7lRLu70tsX305MvDs4Sc/NwPriuVbwXpWWlgZv/LNhwwZJd+46+8wzz+jzzz/XxYsXZVmWPvzwQ506dUobN24M5o8ePaoVK1bI6XTqww8/1OXLl1VcXKz77rtPb731lnw+X/DU2aNHj+p3f/d3lZubqwMHDmjjxo1atGiRDh48mPRTZ7OzslVQkJ+692dwRzPCbmBThJvrlFTptLdSjVt86nh2h3x143c0pU2HVqm1Sdp0qEyF5wOn00a/tk+0UluWSf7+bakqvTvksbZNuqPZ/d4ZyfWkpE+in0Ty79o+51PVyaWSOkKufdykxkOSfOHDw2+UE2n3L17jT1mWQj9ORmqW9Xa016BG1l7vUccUv8MpcT0c/PoTX5vamlxqtLeowy1VVfu0rc6l07YdNv+8eXnS6NTXXybi70+Hw//309x5uRPGpMPfnwmdj/rM5qjP7HzUZzZHfWbnoz6zuXusj1NnkVQul0vNzc2qqKjQ3r17JUlLliwJ3qhn48aNev755yVJTz/9tNatWxeWX7FihSoqKnThwoXg5286nU45nU5VVFTo6aefDo7ds2ePNmzYELz5z86dOyX5m9UDBw7M0Dvd+nezKqXgabPV4xub4GcudqvjokuL1TF26ujYjubYNZqrzlpqra6S79UWta/2SY9M/tEhEVey3v/ZmGEm3dH8RzXVSCtPFsrfaEZq2qTA9aZB5wM39fGO7X6Ou0bxvCes+ZKvSW63S9XeMmnspjqbDtmqvuSWZbXdufaxq0Xup85oZYTTdCep9s7PPZLxp85KUd4M6I62mjVS9WlVq0ZnLnVLy8Lb1fazzXKtqAzuVJdUn5ZtF0rqVoekxeu9sh/xyLKsuD8rFAAAIIBGE0nndDr1+uuvR3xuw4YNwZ3O8QKN4fbt2yM+b1lW8LM5I+UC6urqJoyZMULvOhrS1I3/XMVNh2wVdrXoTPEqLT6yTa7tth6+5Na2kGs0m0uqdLqiTJ/4LG2r2aRGu1sPF9k6/Z5blnvlPe3Mjf/4k03/u0u+6urg6ZxRnzq7rFIT3xLjjn3I3/594mtT28WValx9Rmus2pBGTNIyr+z1/p+T+9Jpeb/5pKrtxWqyLHnibcrC7gC7SY32uJ9WVDcDUnDtd5rgldJToTulY0qqdPrZFrkDu5ZdLXJbIe8FKXj6dHu9Jeu5ErX+rVf/w6iU/HMfAABApssavfmr0WgGJuJmD+mUm4n1lX7nJSlrjk6cOBHz8RC90tJSafRm6m8GNOsbMecB3X4/pTcD+tnR6gl3nU2Hvz8TOR/1mc1Rn9n5qM9sjvrMzkd9ZnP3Wh+/qAYAAAAAGEWjCQAAAAAwims0gZni9vtRD+3rG/DfbTRG8ea6uq5pwYL7kjYf9ZnNAQAAjEejCcwEd7nGbsLwkZt3/UgLk7nh4cGY13gv81Gf2RwAAMB4nDoLAAAAADCKRhMAAAAAYBSNJgAAAADAKBpNAAAAAIBRNJoAAAAAAKOyPvm4ZTSRExTMy1dvX3/a5+KVyfU99/16OXLydeLECSPHQ2SlpaUaHurXoZ9W8P40jPrSIxevqeZ7sep1Xfjwv+rgX7i14EFn1Ll450uEmfz6pVMuXtSXHrl4UV965OJFfemRi1dgvpyFRfdHFbjSeVXRjg3V29ufEbmZWJ/DwccYJIvD4dDCovt5f06C+szONx3qmzN7liRpwYPztbCo0Mg606m+dMpRn9n5qM9sjvrMzkd9ZnPUN/V8nDoLAAAAADCKRhMAAAAAYBSNJgAAAADAKBpNAAAAAIBRNJoAAAAAAKNoNAEAAAAARtFoAgAAAACMotEEAAAAABhFowkAAAAAMIpGEwAAAABgFI3mDDZrlkODg4OpXsa0NzQ0pFmzHKleBgAAAJA0NJozWNFD9+n69evy+XypXsq0NTAwoOvXr2vBg/NTvRQAAAAgaXJ6e/ujHhzLWHLpn/vaVx/We+//Rrt27dK+fftUXFwc13ER2Y0bN/TjH/9YQ0ND+vqSLwd//ql+3cmRy4Tc8PCIJOmLvsGIY9JlneTIkSNHjhy5yLmcgoL86Ab39SvaseMnyYjcDKxv5/Zv6+0zv1ZHR4eeeeYZOZ1O5eXlxXxsTDQ8PKxr165paGhIC4sKtXP7Os2encP7c7Ic9ZmdbxrU53D4T7iZOy93wpjpUF9a5ajP7HzUZzZHfWbnoz6zOeqbcr6cmJOYNvLz5+itI7vV9Earztkfqeuz67p9+2bYmJHREWVnxX6GdbJzw8PDcjhivw4yUevMneOQ9Xixvr7ky/reptWaPZv/1AAAADBz8K/fGW727Bzt2LZWO7atjfh8pvzG5UrnVS0suj9p88WbAwAAAGYCbgYEAAAAADCKRhMAAAAAYBSNJgAAAADAKBpNAAAAAIBRNJoAAAAAAKNoNAEAAAAARtFoAgAAAACMotEEAAAAABhFowkAAAAAMIpGEwAAAABgVNaNq6dHoxnY29evgnn5iV5PylBfZqO+zEZ9mS0R9f3pn7+i8+0dOtL0Qz300Hyjx44Vr19mo77MRn2Zjfoy273Wl1NQEF24t69f0Y4Ny/VmSI76zM5HfWZz1Gd2Puozm0tAfQ6H/4SbufNyJ4yZDvWlVY76zM5HfWZz1Gd2Puozm6O+Kefj1FkAAAAAgFE0mgAAAAAAo2g0AQAAAABG0WgCAAAAAIyi0QQAAAAAGEWjCQAAAAAwikYTAAAAAGAUjSYAAAAAwCgaTQAAAACAUTSaAAAAAACjaDQBAAAAAEbRaAIAAAAAjMq6cfX0aDQDe/v6VTAvP9HrSRnqy2zUl9moL7Mlor4//fNXdL69Q0eafqiHHppv9Nix4vXLbNSX2agvs1FfZrvX+nIKCqIL9/b1K9qxYbneDMlRn9n5qM9sjvrMzkd9ZnMJqM/h8J9wM3de7oQx06G+tMpRn9n5qM9sjvrMzkd9ZnPUN+V8nDoLAAAAADCKRhMAAAAAYBSNJgAAAADAKBpNAAAAAIBRNJoAAAAAAKNoNAEAAAAARtFoAgAAAACMotEEAAAAABhFowkAAAAAMIpGEwAAAABgFI0mAAAAAMAoGk0AAAAAgFFZn3zcMprICQrm5au3rz/tc/GivvTIxYv60iMXL+pLj1y8pprvxarXdeHD/6qDf+HWggedUefinS8RZvLrl065eFFfeuTiRX3pkYsX9aVHLl6B+bJGb/4qqkbzSudVLSy6P+aJenv7VVCQn/Y56jM7H/WZzVGf2fmoz2wuEfU9/++8sv/hX/Szo9VaWFRoZJ3pVF865ajP7HzUZzZHfWbnoz6zOeqbej5OnQUAAAAAGEWjCQAAAAAwikYTAAAAAGAUjSYAAAAAwCgaTQAAAACAUTSaAAAAAACjaDQBAAAAAEbRaAIAAAAAjKLRBAAAAAAYRaMJAAAAADCKRhMAAAAAYBSNJgAAAADAqKwbV0+PRjOwt69fBfPyE72elKG+zEZ9mY36Mlsi6vvTP39F59s7dKTph3rooflGjx0rXr/MRn2ZjfoyG/VltnutL6egILpwb1+/oh0bluvNkBz1SZJu3RpS0xutOmd/pK7PruvmrdvKzop943tkdCSpueHhYTkcjqTNF2tu1iyHih66T1/76sPauf3bys+fE9N8vD8Nz0d9ZnMJqM/h8P/3NXde7oQx06G+tMpRn9n5qM9sjvrMzkd9ZnPUN+V8OTEnMW3199/UH27apyud3ZIkp9OpvLy8uI6VnRXfGuLNOeJ8Jydrnb19g7r0/m/03vu/0dtnfq23juzW7Nn85wcAAIDpiX/pIuj15rd1pbNbixcv1r59+1RcXJzqJU0rPp9Pu3btUkdHh5reaNWObWtTvSQAAAAgIbgZEII+uPCxJOnll1+myUwAl8ulffv2SZLO2R+leDUAAABA4tBoIqjz02uaP3++XC5XqpcybRUXF8vpdKrrs+upXgoAAACQMDSaCLp9e1i5ubmpXsa0l5eXp9u3h1O9DAAAACBhaDQBAAAAAEbRaAIAAAAAjKLRBAAAAAAYRaMJAAAAADCKRhMAAAAAYBSNJgAAAADAKBpNAAAAAIBROb29/VEPjmUsuczLjYyOKDsrrkMjRiOjIzG/jun2fiFHLpG54eERSdIXfYMRx6TLOsmRI0eOHDlykXM5BQX50Q3u61e0Y8dPkhE56lN2FhvcyZKdlR3T68j70/B81Gc2l4D6HA7/30dz5+VOGDMd6kurHPWZnY/6zOaoz+x81Gc2R31TzkdnAQAAAAAwikYTAAAAAGAUjSYAAAAAwCgaTQAAAACAUTSaAAAAAACjaDQBAAAAAEbRaAIAAAAAjKLRBAAAAAAYRaMJAAAAADCKRhMAAAAAYFROqhcAIB04pCxH8Lus7GEpa3bMR4k353DkJnW+jK9vdFjScMzHAwAASBYaTQB+s74R/HLe/PgOEW9uwaLkzpfx9d362/gOCAAAkCQ5vb39UQ+OZSy5zMuNjI4oOyuuQ2ekY8eOSZI2bNgQfGxwcFAej0fPPvusXC5XwuYeGR2J+XVM5PslKytH8+6L6/BIgb6+AY2ODk05Jt3+fok1Nzw8Ikn6om8w4ph0WSc5cuTIkSNHLnIup6AgP7rBff2Kduz4STIiR33KzkrcJbsNDQ165JFHJjR1tbW12rhxoyzLmpCJ1Ajatq2jR4+qqqpKubm5kqSenh7t2bNHlZWVYc3h4OCgDhw4oM2bN8vpdE44/tq1a1VbWxucI3Q9iWwyJf/POpbXMfHvzzunzeq8R9ZzzZMPLanSaW+ZCkMeaq+3tK1pkxoPSdsiZEuqT8u7PpDoVou7RtrtVdmCO3O6L20JGTNRe71bHc+GZO6Rf813G7VJjXallo5f46Q/o5Dx/lnksbZJh2xVLguZ9+LEn+FEgZ9TtVS3RmdW3/kZzpuXp6lOnU3Hv19inc/h8P99NHde7oQx06G+tMpRn9n5qM9sjvrMzkd9ZnPUN+V8nDqLpNi5c6dqa2s1MDCg5uZmdXZ2Bp87depU2NhXXnlFxcXFOnr0qC5cuKC9e/dKkkpKSiRJbW1twUxRUZEaGhr08ssvy+PxyOVyaf/+/WHHe+2114Jfb926VeXl5WpoaAg+furUqeAcoevZs2dPWJM7k4Q3hqHa5XF33Pna2qbmsfG27W/Axme7j7tVE3KE7uM1OrO6Wt5Oj6ynQpu1Zlk1d5vfnKUVtuyKqUa0y2O1Rnym+5JPm8aaxzsNcLda3GOda1eL3E/Vqi0QeM5SeFtaqzVWbcSm/Y5CLS6WOlSoMq+txfVutXSZa7QBAAASiUYTSZGbm6u6ujpJ0rPPPqtjx47p0qVLKi8vj7gj2dDQILfbrY8++kjr1q2T0+mUbdt69913VVlZqV/+8pfavn172Bwvvvhi8PjS1Duac+fO1Ztvvhk23/Lly4M7q4HdVExlqSptW1vGNZJT6T7u1hrfDtkVhZIqZduV/ici7WiOb9YkqclSbej3WxplVyxV3AI7k3c5Tvdxt2reltra1sjj26TmpjZJIc1j6LrcLp32lslrl4UeQS3uJi32hu52hrrTtE8Qeuwmt1b/nVdzJc2gs9wBAEAGotFEwvl8PlVXV6umpkZFRUWqra0N7hqG7ja2tbVp3bp1Ki0t1SOPPCLLsnTffffp6NGj+uKLL/Taa69pz549crlcam9v17Fjx7RhwwYdO3ZMixYtkmVZwdNfQ3dJQ+d45ZVXZFmWvvjiCz399NNh6wwdJ/l3NDGFsNNH18iq8Z8621azJrgzGVBSLamrRTW+HbIrHlaL2x1+6mwkC8KbtQmnzp73yDp7jzUsG2t2z3tkWdum3GF0Fbuk1dVa5WuSq7pEvke8qlwWehqwfwd01Vg+4qm5VngruSnklNrIpyRPcrowN5wFAABpjkYTCedyueT1erVnzx798R//sR566CG1trbK6XSGNYk+n09HjhzR448/rtzcXPX09Oill17ShQsX9Morr6i8vFzHjh2TZVlhp7Xef//9qq6u1s6dO7VhwwbV1dWprq4u7Xc015b+H1GPHR4ZkSM79mtoR0dHlZV1972vvLx8tRz7L8HvIzWLQSVV2iKNNWlb1OJeo9q2ElWdrNTSBbqzSzlBmbwV/gbMt71RespS+JW5zSFzjl3reN4j6+wq2RUPq+OiS4snNKat8rg7tOWu1zvexbLKKdYtfeKTXC7JJ2lpRaVUb6m2JmRH86mxXcfAz0bjTtGOmb4AACAASURBVM0N1hHb7uvDLqm1U9KCwCnI1fKuL1TZH9RqYGDyi/Ojfd1N5RLx/vz8xhcxHw8AAKQPGk0khdPplNfr1eDgoFpbW3X06FH95Cc/CRvzwgsvSJL+4R/+QX/yJ3+iJUuWaPPmzfrhD3+o559/Pmzs22+/rb179wav0WxoaNCRI0f0j//4j3rzzTfDxobuVK5bt05VVVVpsaPpv6FLdIaGhpWT47j7wHFGRkaUHUUDkJeXG/Z9dNdoSup6Rz6VqKR6pXxHWtRysVa1bRFi2qRGe4s6Ak3ps0tVZtsa39q111tqXRFy45yzzdq0olJSu3xy6ckJx12lVcUH9U5XmblrF7ta5H7qjFae3CGVuPSwuvXORZcWr5DOXPIPudv1nZFvNNQsK8LNh4K7mm1j122GPL4l+F27mmpc2mEHbgaUK4djdNL5o33dTeUS8f7s+2JAt2+zdQsAQKai0URS9PT0aP/+/SovL5ckbdy4Udu3b5+wo+nz+fT444/Ltu1gNvTrqbz44ovq6elRX1+fXnjhhbBdzNDdzdzc3LTY0XzryO6ox17pvKqFRffHPEdcd52NQfd7kmu15NOT2uJq0jvP2rIXSIEb6awKvQPreY8Orm5UlQ7Kf83imshNaZOlZpWoqmmlzlysUnWFpK4O+YoXR9y1fNglHXyvW2X3ePOgYHNYUqXTtleFapdHklSoMq//9Nqxqidfu0pUddKrskAjOnadqWv8XWebxt2dtqtDvpBTZ9vrLbVKKnzEJd+lbrWf3SZf9eng+ObGF5ROd51NxPvz3258SVc6r8V8TAAAkB5oNJEU169f17x584IfSTI4OKjdu3cHr6Vct26dvvvd74ZlbNuesJMZENjJDDSKgRsFbd68WZcvX9aqVasmZAI7pJIm3EhovJl6t9nYtKvJt1hbXGd0RlLh+ko9edwtq+ZOB9YcuCZxS6Psikp5l3Wr5W1JY3dSLRt/xOCOpr+Zc223/Y3XkVq5Vkz8hUOJ62EVfnOlVPeOutfHfvps93G31oytd9OhcbuUXR3yTZoMNIqhN/kZu14ztBEtqVLVFoUcp1sdF0tUdXKVWi1L2zS2e/yIT23Fqyauv8glPbdG20qqdLoisXfhBQAAMIlGE0lx7do1Pfroo8FGU1LwWk1JOnz4cMTcZB8x8uqrr4Z9/+6772r58uWSpEWLFqm+vj7ijuaNGzdUUVGhCxcuTDjm+FNnpTsfh4IIujrkWlEmXbrzUOF6r+z1UsQdzQna5bEOynUy0k2B/I2oJOm8x/+5k+NOVe2+NNa+LSiT1xvr4seaweJG2XbM4Tu63tGZNmlx2IOhTXS3Wtwlcj07Pui/Y2/g1OHu4z6VuB4Orq3jYmimRFW7/U1093G3std65czirrMAACC90WgiKUIbwYBPP/00uPO4bt26iLm9e/eGfcZlQFFRkb71rW9J8p+W++mnn6q4uFiS7rqj+frrr094bvypszNdVDcDWuC/LrL70iTj7mqpKu1qtbg9ap/sYz/Oe2Q9JzXaE3crP/G1ybVi/MehnNHKiI3reJF3VEN1v3dGbcU7IuyS3jmV1nrOp6qTO8Z2J8dOmw2Zu71+rJmdcj3deudtaeVuqcVtBXdCT2vstNstm1Rb16InvWX6xCctzhF3nQUAAGmPRhMJ19PTo48++kilpaXBxwKfq1lXV6eenh5VVFRo8+bN2rNnT9iuZzQ7mhcvXgwec3BwcModTUQn6psBhQr7uBO/5pCP8wj7KI+gQpV5V8kzdhqptEmNoXdqfdWl08Emc9y1kSXjdzmfVLW9WE2WJU/Eue5m/GdZblKjPbH9DZ5uu6VRduB521alutXitmQVN8qukDyW/7pK+27Xjna9ozPFO+RdUCgFmt9g02yrbIFUed4z9kuQTXq3Qsqi0QQAAGkua/Tmrya/dWGIxN+MJLU56pNKv/OSlDVHJ06ciPn46SJw06HAzYBCr/MM3HE2tJFNhdLSUmn0pk781UtRZ5JyM6DZ/zrm4yNFbv2tZsrNgH52tFoLiwqjzsU731T4/4PZ+ajPbI76zM5HfWZz1Gd2vkyrjx1NTCtOp1N1dXXB7y3LivqutQAAAADMyPrk45aodjTjVTAvX719k3+weLrk4jWd6nvu+/Vy5ORn9I5mJigtLdXwUL8O/XSKD2I0JNr3S1Z2joq+9G8Svh6Y0fnf/otGR4YmfT4d/36Jdb7n/tirzz7r0cG/cGvBg86oc/HOlwjT6f8PJuejPrO5eFFfeuTiRX3pkYvXTKkvJ9rt0HvZOs2EHPVJDkd8n6WI2Dkcjphex8S/Px3S7feD3/X1DWjevLyY54s319V1TQsW3Je0+TK9vqIFhbrbqbPp9vdLrPPlOLIlSQsenB/x1NlMry+dctRndj7qM5ujPrPzUZ/ZHPVNPR+nzgKQNCyN3mlcRkduSqOx/+Ih3tzw8KA0eitp8033+gAAAFItO9ULAAAAAABMLzSaAAAAAACjaDQBAAAAAEbRaAIAAAAAjKLRBAAAAAAYRaMJAAAAADCKRhMAAAAAYBSNJgAAAADAKBpNAAAAAIBRNJoAAAAAAKNoNAEAAAAARuX09vZHPTiWseQyLzcyOqLsrLgOjRiNjI7E/Dqm2/uFHLlE5kZGRiVJX/QNRhyTLuskR44cOXLkyEXO5RQU5Ec3uK9f0Y4dP0lG5KhP2VlscCdLdlZ2TK8j70/D81Gf2VwC6sse+63X3Hm5E8ZMh/rSKkd9ZuejPrM56jM7H/WZzVHflPPlxJwEAABA2rh1a0hNb7TqnP2Ruj67rtu3h++a8Z/FFPsvmJOdGx4elsPhSNp8oblZsxwqeug+fX3Jl/W9TauVnz8n5uMBMxmNJgAAQIYaGLil33+2Tlc6uyVJTqdTeXl5d83Fe6lMsnOOOP+lamKdvX2DuvT+b/Te+7/RyVPn9NaR3Zo9m386A9HivxYAAIAM9VbLu7rS2a3Fixdr3759Ki4uTvWSphWfz6ddu3apo6NDTW+0ase2taleEpAxuCgPQbNmOTQ4OJjqZUx7Q0NDmjUr9tOAAAAY7zf/fFmS9PLLL9NkJoDL5dK+ffskSefsj1K8GiCz0GgiqOih+3T9+nX5fL5UL2XaGhgY0PXr17XgwfmpXgoAYBr47LMezZ8/Xy6XK9VLmbaKi4vldDrV9dn1VC8FyCg0mgj6+pIvS5J27dqlixcvpng108+NGze0f/9+DQ0N6QnrK6leDgBgGhgaGlZubm6qlzHt5eXlRXWTJQB3cI0mgr63abVOnjqnjo4OPfPMM1HfUAB3Nzw8rGvXrmloaEgLiwq15burUr0kAAAAIGFoNBGUnz9Hbx3ZHXaL9Ju3Brj9uYFc7hyHrMeL9bWvPqyd27/NXesAAAAwrfGvXYSZPTtHO7atDd5VLVM+UPZK51UtLLo/afPdS47P4QIAAMB0xzWaAAAAAACjaDQBAAAAAEbRaAIAAAAAjMrp7e2PenAsY8mRI0eOHLl4cyMjo5KkL/oGI45Jl3WSI5cOOSTHyOjIlK9RprxfyJFLVi4n2hua9PZlxk1h4s5Rn9n5qM9sjvrMzkd9ZnMJqC87O0uSNHde7oQx06G+tMpRn9n5kpxD8mRnZU/6GvH+nCRHfWbny7D6OHUWAAAAAGAUjSYAAAAAwCgaTQAAAACAUTSaAAAAAACjaDQBAAAAAEbRaAIAAAAAjKLRBAAAAAAYRaMJAAAAADCKRhMAAAAAYBSNJgAAAADAKBpNAAAAAIBRNJoAAAAAAKNyenv7ox4cy1hy5MiRI0cu3tzIyKgk6Yu+wYhj0mWd5MilQw7JMTI6MuVrlCnvF3LkkpXLKSjIj25wX7+iHTt+kozIUZ/Z+ajPbI76zM5HfWZzCagvOztLkjR3Xu6EMdOhvrTKUZ/Z+e4hN3duXvC9j/STnZU96Ws7E96f1BchR31TzsepswAAAGmgquawflD+f+vsOx/o9u2hVC8nKXw+n9xut3p6elK9FACG0WgCAACkgb/523/S3537Z/37XQe0/Pf+TM99/8c6ddrWrVvp0XTati3LstTQ0BD2eE9Pj3bv3k2zCCAMjSYAAECaGRkZ1fn2Du2ufl3Lf+/fa/O2H+nYz/5WAwO3Urquxx57TL/4xS9k23Zc+fE7mC6XS16vV06n0+QyAaSBnFQvAACAyfzA/RPNynGEPTY8PCKHI/bfk8abuz00PGENiZyP+szmMqm+vi8GIj43Oir94/93SXv/43/S3v/4hhY9/ID+6JkVWl/6r2Oe51596Utf0ve//315vV7V19fTIAKYFI0mACDtzJrl/9/T5ctXU7wSIN1k6fInV/WjHx/V682tunlzSPlJ/tecZVl64okndPjwYZWXl094vqenRxUVFbpw4YIkad26daqqqtKHH36o559/XpK0atUqbd26VaWlpfJ4PNq7d6+cTuek2dzcXDU0NOiBBx7QBx98oFOnTqmoqEgNDQ1yuVzJKx5A1Dh1FgCQdgrvK5Dkv/ssf/gzU/5EKysrS1/57YXa9r3/TbNmpeafcqWlpRFPoQ00im63W7Zty7ZtPfTQQzpw4IAsy9Kbb76pkpIStba2TmhSp8oGNDc3a8eOHbJtW2vXrtWJEyeSUi+A2LGjCQBIO9nZ/n88v99WP+G5ZN/e/UrnVS0suj9p81Gf2Vwm1bfh6Vp9fuOLiM9nZ2fr0f/pSyr7t/+LvrNhefDxxtdPxzyXCS6XSzt37pTX61VNTU3w8YsXL2rRokV67LHHgo8Fdi3vdrOgaLI7d+4M7mAuX75cR48e1eDgoHJzc02WB8AAGk0AAIA0lJPj0Ncf+1f6/e/8r/r22idSvZwJ1q5dq7/7u78L23EEgAAaTQAAgDRQeF+B+vsH9TuP/7b+4Pef1LdWLE31kqaUm5urHTt2qLy8XIWFhZKk4uJiXb58WR9++KEsy5IknThxQl/5ylfkdDp1/fr1SY93tyyAzEKjCQAAkAZ+Uv8DPfjg/FQvIyYul0tr167VuXPnJElOp1MvvfSSysvL1dnZKUnaunVr8HrMoqIiFRQUhN0MKOBuWQCZhUYTAAAgDaR7k2lZVnCnMdT4RtDlck16k57c3FzV1dWprq4u+JjX640qO36eydYDID1w11kAAAAAgFFZn3zcMprICQrm5au3rz/tc/GivvTIxYv60iMXL+pLj1y8pprvP+xp0gcXPtbPju6JKRfvfIkwk1+/dMrFK1Pqe+779XLk5PMxHwlWWlqq4aF+HfppRcTneX+aRX3pkYtXYL6caG/5fS+3B8+EHPWZnY/6zOaoz+x81Gc2l4j65syeJUkRn58O9aVTjvrMzpfsHJLH4XBM+hrx/oyM+szOl2n1ceosAAAAAMAoGk0AAAAAgFE0mgAAAAAAo2g0AQAAAABG0WgCAAAAAIyi0QQAAAAAGEWjCQAAAAAwikYTAAAAAGAUjSYAAAAAwCgaTQAAAACAUTSaAAAAAACjaDQBAAAAAEbl9Pb2Rz04lrHkyJEjR45cvLmh4eEpn0+XdZIjlw45JMfI6MiUr1GmvF/IkUtWLqegID+6wX39inbs+EkyIkd9ZuejPrM56jM7H/WZzSWgvhyHQ5IiPj8d6kurHPWZnS/JOSRPdlb2pK8R789JctRndr4Mq49TZwEAAAAARtFoAgAAAACMotEEAAAAABhFowkAAAAAMIpGEwAAIEPl5Dg0ODiY6mVMe0NDQ5o1y5HqZQAZhUYTAAAgQz34oFPXr1+Xz+dL9VKmrYGBAV2/fl0LHpyf6qUAGYVGEwAAIEN97auLJEm7du3SxYsXU7ya6efGjRvav3+/hoaG9IT1lVQvB8goOaleANLLrVtDanqjVefsj9T12XXdvHVb2Vmx/z5iZHQkqbnh4WE5HLGf0pKsdc6a5VDRQ/fpa199WDu3f1v5+XNinhMAgPF+v2y53vnVh+ro6NAzzzwjp9OpvLy8VC9rWhgeHta1a9c0NDSkhUWF2vLdValeEpBRaDQR1N9/U3+4aZ+udHZL0j39zyo7K741xJtzxPlOTtY6e/sGden93+i993+jt8/8Wm8d2a3Zs/nPDwBwb/LyZuutI7vDfkl8+/bNu+aS/QvhTPxFcu4ch6zHi/X1JV/W9zat5v/bQIz4LwZBrze/rSud3Vq8eLH27dun4uLiVC9pWvH5fNq1a5c6OjrU9Eardmxbm+olAQCmgdmzc7Rj29qY/r/S29uvgoL8mOdKdu5K51UtLLo/afPFmwMwEddoIuiDCx9Lkl5++WWazARwuVzat2+fJOmc/VGKVwMAAAAkDo0mgjo/vab58+fL5XKleinTVnFxsZxOp7o+u57qpQAAAAAJk9Pb2x/14FjGksu83M1bt5Wbyw0EEi0vL083bw3E/Dqm2/uFHLlE5oaGh6d8Pl3WSY4cOXLkyJGLnMuJ9jz03r7MOJc/7hz1xXXRPOKTnZUd0+vI+9PwfNRnNpeA+nLGbv4R6fnpUF9a5ajP7HzUZzZHfWbnoz6zOeqbcj46CwAAAACAUTSaAAAAAACjaDQBAAAAAEbRaAIAAAAAjKLRBAAAAAAYRaMJAAAAADCKRhMAAAAAYBSNJgAAAADAKBpNAAAAAIBRNJoAAAAAAKNoNAEAAAAARtFoAgAAAACMyunt7Y96cCxjyWVebmR0RNlZcR0aMRoZHYn5dUy39ws5conMDQ0PT/l8uqyTHDly5MiRIxc5l1NQkB/d4L5+RTt2/CQZkaM+ZWexwZ0s2VnZMb2OvD8Nz0d9ZnMJqC/H4ZCkiM9Ph/rSKkd9ZuejPrM56jM7H/WZzVHflPPRWQAAAAAAjKLRBAAAAAAYRaMJAAAAADCKRhMAAAAAYFROqhcAYAbImj3l0w5H7l3HRDxs9nD65kZvxXx8AACA6YJGE0DiOb4sZT8w6dMLFsV32Hnz0zQ38t+loX+ObxIAAIBpgFNnAQAAAABGsaOJpOjp6VFFRYUuXLgw6ZiioiI1NDTI5XJJkhoaGrR8+XJZlqXBwUF5PB5t2LBBx44d07PPPhscJ0nHjh3T3r17Jz32kiVLVF9fL6fTKdu29fzzz991zaEZAAAAANFjRxNJs2jRIrW2tsq2bbW1tWnr1q3B723b1saNG4Nje3p6JEmPPfaYJOnDDz/UvHnz9Oijj+oHP/iBTpw4ocHBwbDj79mzJ3is0D9tbW164oknIo5tbW1VSUmJ3nzzzbBMa2urFi2K83xOTK6rRe769vDHzntkWVb4n7Ex7fVutXRNMW7sj+d8NJN3q8V959j+44/PdqvF7VH7hGzk58PWBwAAgCB2NJE0ly9f1qpVq8Iee+2114JfFxUV6Vvf+pYk6dy5cyotLdUvfvELDQwM6IMPPtCpU6fCxr/22mvBXUdJ2rt376S7mkuWLNHmzZvDHhscHNT+/fvV1tamtra2sLE1NTX3Viwi+FwtdbVqa5OspsBjm9R4SCqpPi3v+kL/Q+c9ss76v1xasUOt7hZ1e8tUqHHjxrTXW2r1fyWPtU3Nk85foqqTtuwFY992tejgxSpVV4SOKdSTq31a427R6bE5w5xvUm3xKtkx1w4AADCz0GgiaRYtWhQ8FXVwcFAHDhzQ5s2bg6emvvrqq5L8u5lXr17VE088oYGBAeXl5enXv/613nzzTblcLh07dkyStGHDhrDj79mzZ8JjkoJznTt3Tv/0T/+k5cuXq7u7W9///vd14cIFbd26VeXl5ZLunK7L6bLmfd7WpNriRtneh9XibtJib6WWStJ5zxSpparc3irPeanyrjMsVaVtj43rVot7jX++iqURR7cfqZVru63CiA1qm9ZYtf4vS6qCTWf7WZ+qno18PMnf9P7zv7H1rYVSIX+7AgCAGYx/CiHtXLx4Ufv379fPf/5z1dTU6Gc/+5lKSkr09NNPh43bu3ev1q1bp6qqqimPl5ubq/Lych07dkyPPPKIJKmwsFCvv/66JMm2bVmWJcnfrFqWFTx1N5FKv/NS1GOHh4flcDhinmNkdETZWbGfIW869+cvvKjf+71y2SWS1C5fm7Q42oMuq/Q3j1GdHit1H3drTY3Cdy/lbwK3XRxrGrtadFCN8i7rVot7m3TIlr3M35z6ttuqXBbhwF0tOnhxpaoXRHgutLH9bemv//oD/Wj//xl8NtNfv7tJRH19fQMxHw8AAKSPnCudV6MeHMvYgIJ5+RmRk6hveHhYjgT+6iHaU2cty1JbW5sGBwfldDpVXl6uV199dcodzaVLl6q8vDyqGwJdvHhR3d3d+t73vhfc0bRt/8mQx44dk2VZWrduncnSJxgeHk5KJis7Ky1yo6Oj+rytQSvdd17vZqtZUomqql0Txkufq8VtqbYt8umyk2mvt7Rt7LTc2qcs1YY8V1J9WnaF/zjtR2rV1jR2Cu+WxrEms0babatygeRvHGuk3V6VBb6vq1WbIv1Sw78j6qs+LXtsnaOjoxN+DunwOiQqJ5mvb2R0VFLkv7fS8e9Pk/NRn9mcRH0m56M+szmJ+kzOR31mc9K91Zc1evNXo9FOsrDo/pgn6u3tV0FBftrnqG9shy1rjk6cOBHz8WPV09Oj3Nxc5ebmTnhucHBQtbW1OnXqVPBOtCdOnAhrSgMCO5qRjhMQevdayb+DefnyZW3YsGHC3XADxwtcv/nCCy8YP422tLRUGr2pE38V/Y5mxr8/c74a8jma3RNOnXVf2jLuGs1V/lNeQ58775H1XOQrMDcdirQL6d9lPLP6tLzrpe6uQhWG7kZ2tchdJ1V7y/RJSIM67shqtCv18HG31vhc2nTRpS0h124GGtsJ84/7HM2Mf/3uIhH1vXLo5/rpwZ/L/huvsXWmU33plKM+s/NRn9kc9Zmdj/rM5qhv6vk4dRZJYdu23n33XS1fvlzvvvuuSktL5fF4tHfvXjmdTvX09Ojw4cPauXOnOjs71dvbq9bW1mCTN3fu3Ig7mqFN6VQCTeq6dev8jd4Yp9MZPIVWkjo7O5WbmzvhjrYwqOsdnWlr1pnjW6LeqQyY+mZAgeO3yP1UrdrGbv7jHduRfKfOCrlms12ep3zaYVeqUFJhhS27ol0eq1Wr7Eqp3lLrCluVRS1yu1v0B8UuNVasUqu7IzDr2HWdJao6Gdj1BAAAQACNJpIi0GQGuFwuVVZW6ujRo9q4caMOHz6s3/md39GBAwdUXl4ur9erhoYGvfbaa9q6davmzp0b8bi5ubmqq6tTXV2dfD6fLl68qNWrV4eNibSjKUk+n0/l5eXq7Oyc8BmeSJzu985I1Y1a+XaNWr7pVVm0wWWV8ka4dnJphe3fGQ1cJxm8gXDbhNNn1bZNVpP/TrfNar5z+m6gWSxx6WFJnwTGLyiTN7ih1q5WSZ8cd2tNjUuNtq1V9W51hB6/q0UN/+8DenpjkYoeEAAAwIxFo4mE8/l86uvr02OPPabOzs5g0+hyueRyuYKNX0lJif7+7/9ef/mXf6kf/ehHeuWVV8LuBhvpZkChDeLAwIDef/99/fKXv7zr6bTjr+Xs7OyccPwlS5bcc+0Yr11NNS7tsJdq6TdXyl3Xoie3RxHrapHnvSdV+UiTrFdd/hv6nPfc+VqSVKgyrx3euIaehhvUre6uQtl2pQLNqa9TUmermotXqVIhjeb403wlPbzeK3t9oJpxOn36QA/oqeh/IAAAANMSjSYSzuVy6cUXX5QkzZ8/X2fPntVPfvKT4POBZlFSsLH8oz/6o7BjhJ46O5lHH31Ujz76qKTw3cpIn6E52UehBPT09Gj//v0xVIm7+zx4h9elkrSgTNWrPXrnktRWs0ZW6EeXbrlz06i2mjWySqrUuLpG1tkdsr1jLd+yStnbPbIsjxrtQCM4dkrrlnEfaxI4nXbs8cIFgd1P/+m1lWqR+ymp0R7/0SWfxHSH3O5LPmnhemn2rBh/NgAAANMLjSaSavw1kdHavj2aba87XC7XpDc1siwreBrtZJxOp+rq6mKaE1P7vK3Jf2OekNNfC9dXquy8R2dCr70875F11v9l9yWfSqpPa4dvjQ7qzl1jg5ZVyj4ZuI6yVn/atEmNtq0tx92yLP85tCXVW6QFS+W1y/zHtrZp7Trpge22bK//41Cst1fq9Nj1mpK0dMUmbXvO8n+25pbGST/Dc+kKl7aFnZ5bIu/bxXpw7n+/1x8XAABARqPRBJAUv1VSron3D9XEay+XVcoe+75wvXcsY0fOSiHXUZbJrhh7LOT01vFz+U+ZvaMw0tgI46SlqvQujWKcpBFJQ5MtGAAAYPqL/ZO5AQAAAACYAjuaABJv+GP/n0l0dV3TggX3xXzYvr4BzZuXl/Y5AACAmYZGE0Dijd6a8unh4cG7jol42JGb0qgj7XMAAAAzDafOAgAAAACMotEEAAAAABhFowkAAAAAMCqnt7c/6sGxjCWXebmR0RFlZ8V1aMRoZHQk5tcx3d4v5MglMnfz5u0pn0+XdZIjR44cOXLkIudyCgryoxvc169ox46fJCNy1KfsLDa4kyU7Kzum15H3p+H5qM9sLgH1zZkzS5IiPj8d6kurHPWZnY/6zOaoz+x81Gc2R31TzkdnAQAAAAAwikYTAAAAAGAUjSYAAAAAwCgaTQAAAACAUTSaAAAAAACjaDQBAAAAAEbRaAIAAAAAjKLRBAAAAAAYRaMJAAAAADCKRhMAAAAAYBSNJgAAAADAKBpNBM2a5dDg4GCqlzHtDQ0NadYsR6qXAQAAACRMTm9vf9SDYxlLLvNyDzzwW7r03/5FPp9PLpcrrjkwtYGBAV2/fl1fWvKvYn4d0+39Qo5cInM3b96e8vl0WSc5cuTIkSNHLnIup6AgP7rBff2Kduz4STIiR316/H8ulv33/6Jdu3Zp3759Ki4ujnkeTO7GjRv68Y9/rKGhIX3zd//HmF5H3p+G56M+s7kE1DdnzixJivj8dKgvrXLUZ3Y+6jOboz6z81Gfd1SSDQAAFKNJREFU2Rz1TTlfTsxJTFvf27RaJ0+dU0dHh5555hk5nU7l5eWlelnTwvDwsK5du6ahoSEtLCrUlu+uSvWSAAAAgISh0URQfv4cvXVkt5reaNU5+yN1fXZdN28NKDsr9kt5R0ZHkpobHh6WwxH7dY/JWmfuHIesx4v1ta8+rJ3bv63Zs/lPDwAAANMX/9pFmNmzc7Rj21rt2LZWUuZs7V/pvKqFRfcnbb57yeXnz4k5BwAAAGQS7joLAAAAADCKRhMAAAAAYBSNJgAAAADAKBpNAAAAAIBRNJoAAAAAAKNoNAEAAAAARtFoAgAAAACMotEEAAAAABhFowkAAAAAMCrrxtXTo9EM7O3rV8G8/ESvJ2WoL7NRX2ajvsyWiPpeO/y2Xjv8tv769D6jx40Hr19mo77MRn2Zjfoy273Wl1NQEF24t69f0Y4Ny/VmSI76zM5HfWZz1Gd2Puozm0tAfXPmzJKkiM9Ph/rSKkd9ZuejPrM56jM7H/WZzVHflPNx6iwAAAAAwCgaTQAAAACAUTSaAAAAAACjaDQBAAAAAEbRaAIAAAAAjKLRBAAAAAAYRaMJAAAAADCKRhMAAAAAYBSNJgAAAADAKBpNAAAAAIBRNJoAAAAAAKNoNAEAAAAARmV98nHLaCInKJiXr96+/rTPxYv60iMXL+pLj1y8qC89cvGaar6//M9n9Z/+81n97OiemHLxzpcIM/n1S6dcvKgvPXLxor70yMWL+tIjF6/AfFmjN38VVaN5pfOqFhbdH/NEvb39KijIT/sc9Zmdj/rM5qjP7HzUZzaXiPpeOfRz/fTgz2X/jdfYOtOpvnTKUZ/Z+ajPbI76zM5HfWZz1Df1fJw6CwAAAAAwikYTAID/v727j436vu8A/jnbBHA5xQlpgYRVOyO3nZIRtptaqV6FVib6MBSiKGo7jZDQQPPHhC0mLZpUUZIiNNRo8ozVSnlaEqBbKqVRnLEKWZA1y6jWlJsyklarInCVpSFEPIlzHAhg7w/jC+bBPR/fw3fm9ZIiYfv3+X2/79yBePP73R0AkJSiCQAAQFKKJgAAAEkpmgAAACSlaAIAAJCUogkAAEBSiiYAAABJKZoAAAAkpWgCAACQlKIJAABAUoomAAAASWVOHO4bLufA4sBgZGc1V3s/k0a++iZffZOvvlUj39PbdsXT23bFT/s2Jz1vJTx+9U2++iZffZOvvl1pvqZstrzh4sBglHvsmLlinczJl3Y9+dLOyZd2PfnSzlUh3/Tp0yIiLvnzqZCvpubkS7uefGnn5Eu7nnxp5+Qbdz23zgIAAJCUogkAAEBSiiYAAABJKZoAAAAkpWgCAACQlKIJAABAUoomAAAASSmaAAAAJKVoAgAAkJSiCQAAQFKKJgAAAEkpmgAAACSVOXG4b7icA4sDg5Gd1Vzt/Uwa+eqbfPVNvvpWjXxPb9sVT2/bFT/t25z0vJXw+NU3+eqbfPVNvvp2pfmastnyhosDg1HusWPminUyJ1/a9eRLOydf2vXkSztXhXzTp0+LiLjkz6dCvpqaky/tevKlnZMv7XrypZ2Tb9z13DoLAABAUk2TvQFqy4cfnomtP9wdewtvxqH3jsWpD09HQ2bi/x4xNDx0VefOnj0bjY2NV229ic5Nm9YY8+beGJ/+1C2x5ptfiebm6RNeEwAA6oWiScng4Kn4+orN8c7BIxER0dLSEjNnzqzoXA2ZyvZQ6Vxjhc/kq7XP4sDJeOsXv46f/+LXseul/4kfP/vtuO46v/0AAJia/E2Xkme274p3Dh6J1tbW2Lx5cyxYsGCytzSl9Pf3x4MPPhgHDhyIrT/cHatXfWmytwQAAFXhNZqUvP7GbyIi4nvf+56SWQW5XC42bx55B829hTcneTcAAFA9iiYlB989GjfccEPkcrnJ3sqUtWDBgmhpaYlD7x2b7K0AAEDVKJqUnD59NmbMmDHZ25jyZs6cGadPn53sbQAAQNUomgAAACSlaAIAAJCUogkAAEBSiiYAAABJKZoAAAAk1VQsDpZ98ESONVd/c0PDQ9GQqejUTNDQ8NCEH8dae76YM1fNuVOnTo/781rZpzlz5syZM2fu0nNN2WxzeQcPDEa5x164SF3MyRcNGRe4r5aGTMOEHkfPz8TryZd2rgr5pk+fFhFxyZ9PhXw1NSdf2vXkSzsnX9r15Es7J9+462kWAAAAJKVoAgAAkJSiCQAAQFKKJgAAAEkpmgAAACSlaAIAAJCUogkAAEBSiiYAAABJKZoAAAAkpWgCAACQlKIJAABAUk2TvQGAi2SuK++whrNlH3vFc8MfTngdAIBrVea3v3lhuJoLZGc1R3FgsObnKjWV8t3/QHc0NjXHjh07qnJ+RixbtizOnhmMJx/trPpa9fr8nPd7fxGZhtr5d7DhoTNx8P/+zZ8viY233r/86OX45x+9HP/6/HcmNFfpetVwLT9+tTRXKflqY65S8tXGXKXkq425So2u13TzvJvKGnjn4OEo99jzFYuDdTEnX0RjY+OEz0tlGhsbJ/Q4XnPPz4bMhM9RTZmGTNw87yZ/vlxGNfJls80REZf8+VTIV0tz8qVdT760c/KlXU++tHPyjb+e12gCAACQVO3cm8aUUCgU4lvf+lbp63nz5kVPT0/kcrlJ3NXlXbjfL3/5y7F+/fqYMWPGJO6KiIh4rSvy90c8VVgXC8/79r7ufKyKp6LQuXCcue2x4smnIu5fFdsv/Hn7+ujb8oV4pWNpbNzzu7fRvqEvHvnq9TG9whgAANciRZPkzi9rhUIhHnrooeju7o6WlpbJ3toYPT09sXfv3ti9e3dpb729vfHAAw/U5H6vOYvWReEnL0RHviu+uKE/Nj58fitcFfmtH33VvqEvVvcvjVVbY6RIFgoxO/ZFV/v66NtyZ8wePfDQC9GxafSLFaUSe+TFjljav/qi8nrkxY54uFr5AACmMEWTqrr11lvjM5/5TBw7dqymilt/f3+8+eabFxXK5cuXx1tvvRXbtm2LtWvXTuIOiYiIOXfGlsLIL++84/KFcEQhCt84v0iW6bWuWPrwnojYc1F53VDhtgEArnWKJlV18uTJOHjwYESMlLuurq5YtGhRfP/734/HHnssFixYEJ2dnfHGG29ExMW3rvb29sZ3v/vdiIi47bbboru7O2bMmBEbN26MnTt3RkTEfffdVyqFPT098fTTT4/5/vm3x46eY9++fdHW1nbJ8vv5z38+nn/++Th58mQ8/vjj8fGPfzxef/312LlzZ9Jbgf+68wdlH3vq1IcxffrEP8bjzNmz0VTBmzxd7bkL8/1D1x/Hzgf/NF76877YcsfI9ch93fl4ItcXhc5z1ydf64r8P+XOXbHcF135j26TXZrfOHLr7J6NsTS/cexi7etLvzzwYkesenhPRLTH+p9siTvnROmq54Y7Zke8OHLcyZOn42/+9gfJ8pWrXh+/aq8HANQ+RZOqevnllyObzca8efPi4MGDceDAgViyZEkUCoU4fvx4dHZ2RkdHR+Tz+YgYKYqPP/54rF27Nnp7e+P5558fc2vr6DF33XVXbNq0qfR1b29vzJ8/P959993Ys2dPqageP348nnnmmXjuuefKLoc33nhjFIvFOHnyZEREbN++PXp6emLTpk3R09MTO3bsSHK1879e/d8rPsdUNTQ0HHduKURrdz7y3U9FX+6JkdtiY2nkL7iXdWl3axQ6F8a6QiFWvtgRSx/eE+0b+mLdotkRhUKsu+QKRyIiovWOLVG4Y+TrFzrykd8TMXpL7ezSURFDQ0MeLwCACVA0SW7nzp2lq40XXqFsbW2NxYsXR0TE/v37Y/78+XHrrbeWZpctWxZdXV1x6NChePXVV6Ojo2NMyTx+/Hjs3bu3dNVy1H333ReLFy+Ot99+e8xrLFtaWqKtrS3uvvvueOyxx0qFdjxHjx6NbDZb2vOaNWtKJfX8q51X+oZBvc9d/PmAl3PovWMx5xM3THiN99//ID72sZk1P3dhvpkzRq6OLewsxMids6OF8BJe64qu1xbGukVH4pX+iPb29fHF/q3xwosXvq7zIyue7ItcXHhFsxCFORER+6Irn49V0R4rVkZEbmQ/vc99J1m+ctXr45dqveysie8FAKgNiibJVfudW6+//vrLXqF85plnor+/P1asWBG33357rF+/PtauXRtr1qyJjRs3xoYNG6KnpycWLlwYu3fvjuPHj190++zPfvazmDt3btXfeXb+LeV/LlFDw6U/T/B3KRYHS59HWMtzF+Ub/RzN17oi//KSKHQujH3dHXHgG1vizoNd0fHWytjyuVei49nW2NK5buSq5aFXInJfjNgf8YVv5GLrz1dGofDRbbe7Fxdi3aLRBY7EC/HRFc0jL3bE0q/mY/Qm2xVPFqKw6KM3A8o0ZGL+LTely1emun38qrweAFD7fI4mk2bBggXx9ttvxy9/+cvS93bs2BFtbW0xZ86c+OxnP1u6ehgRsWfPyNWptra22LFjR2lm165d0d/fH7/61a+iv78/crlc9PT0RLFYjPfee690K+369evj9ttvj6NHj0Yul4u2trbo7OyM48ePl87V29sbe/fujXvuuecq/V9gPEfe6o8VixdGxJE4sH/8Y/c92x+tnzv3xZw7Y93nXomOfD7y+Xys2hqx/f6RX+fzXbHvgtnZd2yJQqFw7r++WDmvCmEAAK4hiiaTpqWlJR566KHYsGHDuQIwclvr6Osfly9fHnPnzo329vbI5/Nx+PDhaGlpiTVr1sS7775bmnn//fcjl8tFa2trPPHEE5HP5+Puu++Oe++9Nz75yU/G4cOHI5/PR3t7e8ydO3fMOnfddVcsWbKkdK5XX301Hn300Zp6h9xr15F4ZVdEbl5ExG+jf08uWudc6rh90ZX/+/iP3JIxn7c58o61I+XxqZXnrlIWClG4xOdyjj7++e59ETE7Zl9yHQAAyuXWWZI6vzBeKJfLxZYtWy763vlXJy+0du3ai954Z8aMGbFp06bSmwH9ru8vX748li9ffsnzj/ez0fXPN14+Ejv0Sry0Jxer50Ts614V21c+dZk39omI9j+Iv7xjYcShAxNYYHusym8f+62tYz+fMyKi3WecAABMmKIJ1KQjP38p9qxcHau787Eqnrr4szPntEZutBheVELHftxJRERszX/09cp/jPXn3l32Up/IWdrDuddoAgAwMZkTh/uGyzmwODAY2VlT900b5Iv4+j2bo6Fh5rhXGLlyy5Yti6GhD+JH2/6u7Jlr7fk568Y/i0ymdv4dbHj4TAwc/feK56+1x2+qka++yVff5Ktv8tW3K83XVO47/hUH6uPdDyueky8aMl6ye7U0ZBom9Dhec8/PTGbC56imTCYT2WyzP18uNydf2vXkSzsnX9r15Es7J1/a9eRLO3eF+WrnkgHAqNP/XdZhAwMfxKwKPmux0jkAAMqjaAK1Z/jD8g4bOhUx3Djx01c4BwBAedwrCQAAQFKKJgAAAEkpmgAAACSlaAIAAJCUogkAAEBSiiYAAABJKZoAAAAkpWgCAACQlKIJAABAUoomAAAASTUVi4NlHzyRY83V39zQ8FA0ZCo6NRM0NDw04cex1p4v5syZM2fOnDlz5sxdbq4pm20u7+CBwSj32AsXqYs5+aIh4wL31dKQaZjQ4+j5mXg9+dLOyZd2PfnSzsmXdj350s7Jl3Y9+dLOXWE+zQIAAICkFE0AAACSUjQBAABIStEEAAAgKUUTAACApBRNSqZNa4yTJ09O9jamvDNnzsS0aY2TvQ0AAKgaRZOSeXNvjGPHjkV/f/9kb2XK+uCDD+LYsWMx5xM3TPZWAACgahRNSv7wtt+PiIgHH3ww9u/fP8m7mXpOnDgRjzzySJw5cyb+JN822dsBAICqaZrsDVA77l3x5/GTnXvjwIED8bWvfS1aWlpi5syZk72tKeHs2bNx9OjROHPmTNw8b3as/Kslk70lAACoGkWTkubm6fHjZ78dW3+4O/YW3oxD7x2LUx9+EA2ZiV/4HhoeuqpzZ8+ejcbGib/u8Wrtc8b0xsj/0YL49KduiTXf/Epcd53fegAATF3+tssY113XFKtXfSlWr/pSREQUi4ORzTZP+DxXe+6dg4fj5nk3XbX1rmSuuXn6hOcAAKCeeI0mAAAASWVOHO4bLufA4sBgZGdN/ApOvZCvvslX3+Srb/LVN/nqm3z1Tb76Jt/4msq9/a84UB+3UFY8J1/a9eRLOydf2vXkSzsnX9r15Es7J1/a9eRLOydf2vXkSzt3hfncOgsAAEBSiiYAAABJKZoAAAAkpWgCAACQlKIJAABAUoomAAAASSmaAAAAJKVoAgAAkJSiCQAAQFKKJgAAAEkpmgAAACSlaAIAAJBU5re/eWG4mgtkZzVHcWCw5ucqJV9tzFVKvtqYq5R8tTFXKflqY65S8tXGXKXkq425SslXG3OVulbyZYZP/WdZRfOdg4fj5nk3TXihYnEwstnmmp+TL+168qWdky/tevKlnZMv7XrypZ2TL+168qWdky/tevKlnbvSfG6dBQAAIClFEwAAgKQUTQAAAJJSNAEAAEhK0QQAACApRRMAAICkFE0AAACSUjQBAABIStEEAAAgKUUTAACApBRNAAAAklI0AQAASCpz4nDfcDkHFgcGIzurudr7mTTy1Tf56pt89U2++iZffZOvvslX3+QbX1M2W95wcWAwyj12zFyxTubkS7uefGnn5Eu7nnxp5+RLu558aefkS7uefGnn5Eu7nnxp564wn1tnAQAASErRBAAAIClFEwAAgKQUTQAAAJJSNAEAAEhK0QQAACApRRMAAICkFE0AAACSUjQBAABIStEEAAAgKUUTAACApBRNAAAAksqcONw3XM6BxYHByM5qrvZ+Jo189U2++iZffZOvvslX3+Srb/LVN/nG15TNljdcHBiMco8dM1eskzn50q4nX9o5+dKuJ1/aOfnSridf2jn50q4nX9o5+dKuJ1/auSvM59ZZAAAAklI0AQAASErRBAAAIClFEwAAgKQUTQAAAJJSNAEAAEhK0QQAACApRRMAAICk/h88OP7dJsV5/QAAAABJRU5ErkJggg==;" vertex="1" parent="1">
          <mxGeometry x="550" y="355" width="922" height="529" as="geometry" />
        </mxCell>
      </root>
    </mxGraphModel>
  </diagram>
</mxfile>
